<?xml version="1.0" encoding="UTF-8" standalone="no"?>
<!-- Created with Inkscape (http://www.inkscape.org/) -->

<svg
   xmlns:dc="http://purl.org/dc/elements/1.1/"
   xmlns:cc="http://creativecommons.org/ns#"
   xmlns:rdf="http://www.w3.org/1999/02/22-rdf-syntax-ns#"
   xmlns:svg="http://www.w3.org/2000/svg"
   xmlns="http://www.w3.org/2000/svg"
   xmlns:sodipodi="http://sodipodi.sourceforge.net/DTD/sodipodi-0.dtd"
   xmlns:inkscape="http://www.inkscape.org/namespaces/inkscape"
   width="8.772419mm"
   height="6.3499999mm"
   viewBox="0 0 31.083374 22.5"
   id="svg11541"
   version="1.1"
   inkscape:version="0.91 r13725"
   sodipodi:docname="icon-nav.svg">
  <defs
     id="defs11543">
    <clipPath
       clipPathUnits="userSpaceOnUse"
       id="clipPath3932">
      <path
         d="m 268,4990 25,0 0,18 -25,0 0,-18 z"
         id="path3934"
         inkscape:connector-curvature="0" />
    </clipPath>
    <clipPath
       clipPathUnits="userSpaceOnUse"
       id="clipPath3936">
      <path
         d="m 269.7124,4989.997 c -0.9466,0 -1.7124,0.766 -1.7124,1.713 0,0.946 0.7658,1.712 1.7124,1.712 0.9458,0 1.7125,-0.766 1.7125,-1.712 0,-0.947 -0.7667,-1.713 -1.7125,-1.713 z"
         id="path3938"
         inkscape:connector-curvature="0"
         style="clip-rule:evenodd" />
    </clipPath>
    <clipPath
       clipPathUnits="userSpaceOnUse"
       id="clipPath3940">
      <path
         d="m 268,4989 25,0 0,19 -25,0 0,-19 z"
         id="path3942"
         inkscape:connector-curvature="0" />
    </clipPath>
    <clipPath
       clipPathUnits="userSpaceOnUse"
       id="clipPath3944">
      <path
         d="m 269.7124,4997.286 c -0.9466,0 -1.7124,0.765 -1.7124,1.713 0,0.946 0.7658,1.712 1.7124,1.712 0.9458,0 1.7125,-0.766 1.7125,-1.712 0,-0.948 -0.7667,-1.713 -1.7125,-1.713 z"
         id="path3946"
         inkscape:connector-curvature="0"
         style="clip-rule:evenodd" />
    </clipPath>
    <clipPath
       clipPathUnits="userSpaceOnUse"
       id="clipPath3948">
      <path
         d="m 268,4989 25,0 0,19 -25,0 0,-19 z"
         id="path3950"
         inkscape:connector-curvature="0" />
    </clipPath>
    <clipPath
       clipPathUnits="userSpaceOnUse"
       id="clipPath3952">
      <path
         d="m 269.7124,5004.574 c -0.9466,0 -1.7124,0.766 -1.7124,1.713 0,0.946 0.7658,1.712 1.7124,1.712 0.9458,0 1.7125,-0.766 1.7125,-1.712 0,-0.947 -0.7667,-1.713 -1.7125,-1.713 z"
         id="path3954"
         inkscape:connector-curvature="0"
         style="clip-rule:evenodd" />
    </clipPath>
    <clipPath
       clipPathUnits="userSpaceOnUse"
       id="clipPath3956">
      <path
         d="m 268,4989 25,0 0,19 -25,0 0,-19 z"
         id="path3958"
         inkscape:connector-curvature="0" />
    </clipPath>
    <clipPath
       clipPathUnits="userSpaceOnUse"
       id="clipPath3960">
      <path
         d="m 291.1526,4990.104 -16.0552,0 c -0.9466,0 -1.7147,0.768 -1.7147,1.714 0,0.948 0.7681,1.715 1.7147,1.715 l 16.0552,0 c 0.9466,0 1.7141,-0.767 1.7141,-1.715 0,-0.946 -0.7675,-1.714 -1.7141,-1.714 z"
         id="path3962"
         inkscape:connector-curvature="0"
         style="clip-rule:evenodd" />
    </clipPath>
    <clipPath
       clipPathUnits="userSpaceOnUse"
       id="clipPath3964">
      <path
         d="m 268,4989 25,0 0,19 -25,0 0,-19 z"
         id="path3966"
         inkscape:connector-curvature="0" />
    </clipPath>
    <clipPath
       clipPathUnits="userSpaceOnUse"
       id="clipPath3968">
      <path
         d="m 291.1526,4997.337 -16.0552,0 c -0.9466,0 -1.7147,0.768 -1.7147,1.715 0,0.947 0.7681,1.714 1.7147,1.714 l 16.0552,0 c 0.9466,0 1.7141,-0.767 1.7141,-1.714 0,-0.946 -0.7675,-1.715 -1.7141,-1.715 z"
         id="path3970"
         inkscape:connector-curvature="0"
         style="clip-rule:evenodd" />
    </clipPath>
    <clipPath
       clipPathUnits="userSpaceOnUse"
       id="clipPath3972">
      <path
         d="m 268,4989 25,0 0,19 -25,0 0,-19 z"
         id="path3974"
         inkscape:connector-curvature="0" />
    </clipPath>
    <clipPath
       clipPathUnits="userSpaceOnUse"
       id="clipPath3976">
      <path
         d="m 291.1526,5004.571 -16.0552,0 c -0.9466,0 -1.7147,0.767 -1.7147,1.714 0,0.948 0.7681,1.715 1.7147,1.715 l 16.0552,0 c 0.9466,0 1.7141,-0.767 1.7141,-1.715 0,-0.947 -0.7675,-1.714 -1.7141,-1.714 z"
         id="path3978"
         inkscape:connector-curvature="0"
         style="clip-rule:evenodd" />
    </clipPath>
    <clipPath
       clipPathUnits="userSpaceOnUse"
       id="clipPath3980">
      <path
         d="m 268,4989 25,0 0,19 -25,0 0,-19 z"
         id="path3982"
         inkscape:connector-curvature="0" />
    </clipPath>
  </defs>
  <sodipodi:namedview
     id="base"
     pagecolor="#ffffff"
     bordercolor="#666666"
     borderopacity="1.0"
     inkscape:pageopacity="0.0"
     inkscape:pageshadow="2"
     inkscape:zoom="9.6984114"
     inkscape:cx="18.031495"
     inkscape:cy="15.754678"
     inkscape:document-units="px"
     inkscape:current-layer="layer1"
     showgrid="false"
     fit-margin-top="0"
     fit-margin-left="0"
     fit-margin-right="0"
     fit-margin-bottom="0"
     inkscape:window-width="1311"
     inkscape:window-height="744"
     inkscape:window-x="55"
     inkscape:window-y="24"
     inkscape:window-maximized="1" />
  <metadata
     id="metadata11546">
    <rdf:RDF>
      <cc:Work
         rdf:about="">
        <dc:format>image/svg+xml</dc:format>
        <dc:type
           rdf:resource="http://purl.org/dc/dcmitype/StillImage" />
        <dc:title></dc:title>
      </cc:Work>
    </rdf:RDF>
  </metadata>
  <g
     inkscape:label="Layer 1"
     inkscape:groupmode="layer"
     id="layer1"
     transform="translate(-176.93952,-541.8276)">
    <g
       id="g3988"
       style="fill:#ffffff;fill-opacity:1"
       transform="matrix(1.25,0,0,-1.25,-158.06048,6801.8276)" />
    <g
       id="g3990"
       style="fill:#ffffff;fill-opacity:1"
       transform="matrix(1.25,0,0,-1.25,-158.06048,6801.8276)">
      <g
         clip-path="url(#clipPath3936)"
         id="g3992"
         style="fill:#ffffff;fill-opacity:1">
        <g
           clip-path="url(#clipPath3940)"
           id="g3994"
           style="fill:#ffffff;fill-opacity:1">
          <path
             d="m 263,4984.997 13.42486,0 0,13.4249 -13.42486,0 0,-13.4249 z"
             style="fill:#ffffff;fill-opacity:1;fill-rule:nonzero;stroke:none"
             id="path3996"
             inkscape:connector-curvature="0" />
        </g>
      </g>
    </g>
    <g
       id="g3998"
       style="fill:#ffffff;fill-opacity:1"
       transform="matrix(1.25,0,0,-1.25,-158.06048,6801.8276)">
      <g
         clip-path="url(#clipPath3944)"
         id="g4000"
         style="fill:#ffffff;fill-opacity:1">
        <g
           clip-path="url(#clipPath3948)"
           id="g4002"
           style="fill:#ffffff;fill-opacity:1">
          <path
             d="m 263,4992.286 13.42486,0 0,13.4257 -13.42486,0 0,-13.4257 z"
             style="fill:#ffffff;fill-opacity:1;fill-rule:nonzero;stroke:none"
             id="path4004"
             inkscape:connector-curvature="0" />
        </g>
      </g>
    </g>
    <g
       id="g4006"
       style="fill:#ffffff;fill-opacity:1"
       transform="matrix(1.25,0,0,-1.25,-158.06048,6801.8276)">
      <g
         clip-path="url(#clipPath3952)"
         id="g4008"
         style="fill:#ffffff;fill-opacity:1">
        <g
           clip-path="url(#clipPath3956)"
           id="g4010"
           style="fill:#ffffff;fill-opacity:1">
          <path
             d="m 263,4999.574 13.42486,0 0,13.4249 -13.42486,0 0,-13.4249 z"
             style="fill:#ffffff;fill-opacity:1;fill-rule:nonzero;stroke:none"
             id="path4012"
             inkscape:connector-curvature="0" />
        </g>
      </g>
    </g>
    <g
       id="g4014"
       style="fill:#ffffff;fill-opacity:1"
       transform="matrix(1.25,0,0,-1.25,-158.06048,6801.8276)">
      <g
         clip-path="url(#clipPath3960)"
         id="g4016"
         style="fill:#ffffff;fill-opacity:1">
        <g
           clip-path="url(#clipPath3964)"
           id="g4018"
           style="fill:#ffffff;fill-opacity:1">
          <path
             d="m 268.3827,4985.104 29.484,0 0,13.429 -29.484,0 0,-13.429 z"
             style="fill:#ffffff;fill-opacity:1;fill-rule:nonzero;stroke:none"
             id="path4020"
             inkscape:connector-curvature="0" />
        </g>
      </g>
    </g>
    <g
       id="g4022"
       style="fill:#ffffff;fill-opacity:1"
       transform="matrix(1.25,0,0,-1.25,-158.06048,6801.8276)">
      <g
         clip-path="url(#clipPath3968)"
         id="g4024"
         style="fill:#ffffff;fill-opacity:1">
        <g
           clip-path="url(#clipPath3972)"
           id="g4026"
           style="fill:#ffffff;fill-opacity:1">
          <path
             d="m 268.3827,4992.337 29.484,0 0,13.429 -29.484,0 0,-13.429 z"
             style="fill:#ffffff;fill-opacity:1;fill-rule:nonzero;stroke:none"
             id="path4028"
             inkscape:connector-curvature="0" />
        </g>
      </g>
    </g>
    <g
       id="g4030"
       style="fill:#ffffff;fill-opacity:1"
       transform="matrix(1.25,0,0,-1.25,-158.06048,6801.8276)">
      <g
         clip-path="url(#clipPath3976)"
         id="g4032"
         style="fill:#ffffff;fill-opacity:1">
        <g
           clip-path="url(#clipPath3980)"
           id="g4034"
           style="fill:#ffffff;fill-opacity:1">
          <path
             d="m 268.3827,4999.571 29.484,0 0,13.4288 -29.484,0 0,-13.4288 z"
             style="fill:#ffffff;fill-opacity:1;fill-rule:nonzero;stroke:none"
             id="path4036"
             inkscape:connector-curvature="0" />
        </g>
      </g>
    </g>
  </g>
</svg>
