<?xml version="1.0" encoding="UTF-8" standalone="no"?>
<!-- Created with Inkscape (http://www.inkscape.org/) -->

<svg
   xmlns:dc="http://purl.org/dc/elements/1.1/"
   xmlns:cc="http://creativecommons.org/ns#"
   xmlns:rdf="http://www.w3.org/1999/02/22-rdf-syntax-ns#"
   xmlns:svg="http://www.w3.org/2000/svg"
   xmlns="http://www.w3.org/2000/svg"
   xmlns:sodipodi="http://sodipodi.sourceforge.net/DTD/sodipodi-0.dtd"
   xmlns:inkscape="http://www.inkscape.org/namespaces/inkscape"
   width="9.1722221mm"
   height="8.1138887mm"
   viewBox="0 0 32.5 28.749999"
   id="svg9407"
   version="1.1"
   inkscape:version="0.91 r13725"
   sodipodi:docname="icon-players.svg">
  <defs
     id="defs9409">
    <clipPath
       clipPathUnits="userSpaceOnUse"
       id="clipPath4048">
      <path
         d="m 138.1998,4995.064 c 1.2885,-0.643 2.091,-1.936 2.091,-3.374 l 0,-1.69 -19.2908,0 0,1.773 c 0,1.382 0.7554,2.65 1.972,3.312 l 3.7406,2.035 c 0.3565,0.194 0.5777,0.566 0.5777,0.97 l 0,1.384 c -0.2804,0.366 -1.0851,1.51 -1.4683,3.027 -0.3973,0.316 -0.6285,0.79 -0.6285,1.3 l 0,1.673 c 0,0.402 0.1515,0.792 0.4199,1.096 l 0,2.226 c -0.0246,0.229 -0.1169,1.599 0.8765,2.728 0.8617,0.98 2.2582,1.476 4.1542,1.476 1.8965,0 3.2951,-0.496 4.1568,-1.476 0.9934,-1.129 0.899,-2.499 0.8765,-2.728 l 0,-2.226 c 0.2684,-0.304 0.4199,-0.694 0.4199,-1.096 l 0,-1.675 c 0,-0.657 -0.3853,-1.242 -0.9766,-1.511 -0.3035,-0.88 -0.7192,-1.694 -1.2392,-2.426 -0.1043,-0.147 -0.2044,-0.279 -0.3009,-0.398 l 0,-1.413 c 0,-0.422 0.2354,-0.8 0.6123,-0.99 l 4.0069,-1.997 z m 6.9,-0.476 C 146.2792,4994 147,4992.838 147,4991.546 l 0,-1.546 -5.2419,0 0,1.69 c 0,1.679 -0.9336,3.186 -2.4386,3.938 l -4.0074,1.996 c -0.1636,0.082 -0.2642,0.241 -0.2642,0.427 l 0,1.197 c 0.0613,0.08 0.1232,0.163 0.1866,0.251 0.5074,0.717 0.9231,1.507 1.2366,2.352 0.6715,0.413 1.0934,1.152 1.0934,1.948 l 0,1.675 c 0,0.469 -0.1473,0.927 -0.4198,1.312 l 0,1.979 c 0.0225,0.255 0.0534,1.04 -0.2784,1.914 0.4466,0.108 0.9153,0.169 1.4127,0.173 4.9552,-0.041 5.1193,-5.044 5.1214,-5.094 0.0571,-2.941 1.8818,-5.84 2.6639,-6.951 0.217,-0.309 0.2826,-0.693 0.1803,-1.056 -0.1027,-0.359 -0.3585,-0.649 -0.7003,-0.796 -0.5714,-0.245 -1.2287,-0.296 -1.6774,-0.296 -0.2453,0 -0.4031,0.016 -0.4031,0.016 l -2.7379,0 c 0.0923,-0.157 0.1987,-0.276 0.2952,-0.323 l 4.0787,-1.762 z"
         id="path4050"
         inkscape:connector-curvature="0"
         style="clip-rule:evenodd" />
    </clipPath>
    <clipPath
       clipPathUnits="userSpaceOnUse"
       id="clipPath4054">
      <path
         d="m 0,0 1280,0 0,5616 L 0,5616 0,0 Z"
         id="path4056"
         inkscape:connector-curvature="0" />
    </clipPath>
  </defs>
  <sodipodi:namedview
     id="base"
     pagecolor="#ffffff"
     bordercolor="#666666"
     borderopacity="1.0"
     inkscape:pageopacity="0.0"
     inkscape:pageshadow="2"
     inkscape:zoom="0.85722656"
     inkscape:cx="-126.11614"
     inkscape:cy="-52.401005"
     inkscape:document-units="px"
     inkscape:current-layer="layer1"
     showgrid="false"
     fit-margin-top="0"
     fit-margin-left="0"
     fit-margin-right="0"
     fit-margin-bottom="0"
     inkscape:window-width="1311"
     inkscape:window-height="744"
     inkscape:window-x="55"
     inkscape:window-y="24"
     inkscape:window-maximized="1" />
  <metadata
     id="metadata9412">
    <rdf:RDF>
      <cc:Work
         rdf:about="">
        <dc:format>image/svg+xml</dc:format>
        <dc:type
           rdf:resource="http://purl.org/dc/dcmitype/StillImage" />
        <dc:title></dc:title>
      </cc:Work>
    </rdf:RDF>
  </metadata>
  <g
     inkscape:label="Layer 1"
     inkscape:groupmode="layer"
     id="layer1"
     transform="translate(-278.88784,-451.2112)">
    <g
       transform="matrix(1.25,0,0,-1.25,127.63784,6717.4612)"
       id="g4044">
      <g
         id="g4046"
         clip-path="url(#clipPath4048)">
        <g
           id="g4052"
           clip-path="url(#clipPath4054)">
          <path
             d="m 116,4985 36,0 0,33 -36,0 0,-33 z"
             style="fill:#ffffff;fill-opacity:1;fill-rule:nonzero;stroke:none"
             id="path4058"
             inkscape:connector-curvature="0" />
        </g>
      </g>
    </g>
  </g>
</svg>
