<?xml version="1.0" encoding="UTF-8" standalone="no"?>
<!-- Created with Inkscape (http://www.inkscape.org/) -->

<svg
   xmlns:dc="http://purl.org/dc/elements/1.1/"
   xmlns:cc="http://creativecommons.org/ns#"
   xmlns:rdf="http://www.w3.org/1999/02/22-rdf-syntax-ns#"
   xmlns:svg="http://www.w3.org/2000/svg"
   xmlns="http://www.w3.org/2000/svg"
   xmlns:sodipodi="http://sodipodi.sourceforge.net/DTD/sodipodi-0.dtd"
   xmlns:inkscape="http://www.inkscape.org/namespaces/inkscape"
   width="10.582487mm"
   height="9.3877697mm"
   viewBox="0 0 37.497002 33.263751"
   id="svg9648"
   version="1.1"
   inkscape:version="0.91 r13725"
   sodipodi:docname="icon-players.svg">
  <defs
     id="defs9650">
    <clipPath
       clipPathUnits="userSpaceOnUse"
       id="clipPath592">
      <path
         d="m 173.8444,1863.248 c 1.4865,-0.744 2.4125,-2.24 2.4125,-3.903 l 0,-1.956 -22.2569,0 0,2.051 c 0,1.599 0.8715,3.066 2.2752,3.832 l 4.3158,2.355 c 0.4113,0.224 0.6665,0.654 0.6665,1.123 l 0,1.601 c -0.3236,0.423 -1.2519,1.746 -1.694,3.501 -0.4585,0.367 -0.7252,0.915 -0.7252,1.505 l 0,1.935 c 0,0.465 0.1748,0.916 0.4845,1.268 l 0,2.576 c -0.0285,0.265 -0.1349,1.85 1.0112,3.156 0.9942,1.134 2.6054,1.708 4.7929,1.708 2.1881,0 3.8017,-0.574 4.796,-1.708 1.1461,-1.306 1.0372,-2.891 1.0112,-3.156 l 0,-2.576 c 0.3097,-0.352 0.4844,-0.803 0.4844,-1.268 l 0,-1.938 c 0,-0.76 -0.4445,-1.436 -1.1267,-1.747 -0.3502,-1.019 -0.8298,-1.961 -1.4297,-2.807 -0.1204,-0.17 -0.2359,-0.324 -0.3472,-0.461 l 0,-1.635 c 0,-0.488 0.2716,-0.926 0.7064,-1.145 l 4.6231,-2.311 z m 7.9609,-0.551 c 1.3608,-0.68 2.1923,-2.024 2.1923,-3.519 l 0,-1.789 -6.0479,0 0,1.956 c 0,1.942 -1.0771,3.686 -2.8134,4.555 l -4.6237,2.311 c -0.1886,0.094 -0.3048,0.279 -0.3048,0.493 l 0,1.385 c 0.0708,0.092 0.1422,0.189 0.2153,0.29 0.5855,0.83 1.0651,1.744 1.4267,2.722 0.7748,0.477 1.2616,1.332 1.2616,2.253 l 0,1.938 c 0,0.543 -0.1699,1.073 -0.4844,1.519 l 0,2.289 c 0.026,0.296 0.0617,1.203 -0.3212,2.214 0.5153,0.125 1.056,0.196 1.63,0.201 5.717,-0.048 5.9063,-5.836 5.9087,-5.894 0.066,-3.402 2.1712,-6.757 3.0736,-8.042 0.2504,-0.357 0.326,-0.802 0.208,-1.222 -0.1185,-0.415 -0.4136,-0.751 -0.808,-0.921 -0.6592,-0.284 -1.4176,-0.343 -1.9353,-0.343 -0.283,0 -0.4651,0.019 -0.4651,0.019 l -3.1588,0 c 0.1065,-0.182 0.2292,-0.319 0.3405,-0.374 l 4.7059,-2.039 z"
         id="path594"
         inkscape:connector-curvature="0"
         style="clip-rule:evenodd" />
    </clipPath>
    <clipPath
       clipPathUnits="userSpaceOnUse"
       id="clipPath598">
      <path
         d="m 0,0 1280,0 0,5616 L 0,5616 0,0 Z"
         id="path600"
         inkscape:connector-curvature="0" />
    </clipPath>
  </defs>
  <sodipodi:namedview
     id="base"
     pagecolor="#ffffff"
     bordercolor="#666666"
     borderopacity="1.0"
     inkscape:pageopacity="0.0"
     inkscape:pageshadow="2"
     inkscape:zoom="0.85722656"
     inkscape:cx="155.18846"
     inkscape:cy="-61.809655"
     inkscape:document-units="px"
     inkscape:current-layer="layer1"
     showgrid="false"
     fit-margin-top="0"
     fit-margin-left="0"
     fit-margin-right="0"
     fit-margin-bottom="0"
     inkscape:window-width="1311"
     inkscape:window-height="744"
     inkscape:window-x="55"
     inkscape:window-y="24"
     inkscape:window-maximized="1" />
  <metadata
     id="metadata9653">
    <rdf:RDF>
      <cc:Work
         rdf:about="">
        <dc:format>image/svg+xml</dc:format>
        <dc:type
           rdf:resource="http://purl.org/dc/dcmitype/StillImage" />
        <dc:title></dc:title>
      </cc:Work>
    </rdf:RDF>
  </metadata>
  <g
     inkscape:label="Layer 1"
     inkscape:groupmode="layer"
     id="layer1"
     transform="translate(2.41676,-437.2888)">
    <g
       transform="matrix(1.25,0,0,-1.25,-194.91676,2792.2888)"
       id="g588">
      <g
         id="g590"
         clip-path="url(#clipPath592)">
        <g
           id="g596"
           clip-path="url(#clipPath598)">
          <path
             d="m 149,1852.389 39.99764,0 0,36.6107 -39.99764,0 0,-36.6107 z"
             style="fill:#ffffff;fill-opacity:1;fill-rule:nonzero;stroke:none"
             id="path602"
             inkscape:connector-curvature="0" />
        </g>
      </g>
    </g>
  </g>
</svg>
