<?xml version="1.0" encoding="UTF-8" standalone="no"?>
<!-- Created with Inkscape (http://www.inkscape.org/) -->

<svg
   xmlns:dc="http://purl.org/dc/elements/1.1/"
   xmlns:cc="http://creativecommons.org/ns#"
   xmlns:rdf="http://www.w3.org/1999/02/22-rdf-syntax-ns#"
   xmlns:svg="http://www.w3.org/2000/svg"
   xmlns="http://www.w3.org/2000/svg"
   xmlns:sodipodi="http://sodipodi.sourceforge.net/DTD/sodipodi-0.dtd"
   xmlns:inkscape="http://www.inkscape.org/namespaces/inkscape"
   width="10.583333mm"
   height="11.545359mm"
   viewBox="0 0 37.499999 40.908751"
   id="svg12092"
   version="1.1"
   inkscape:version="0.91 r13725"
   sodipodi:docname="icon-organisators.svg">
  <defs
     id="defs12094">
    <clipPath
       clipPathUnits="userSpaceOnUse"
       id="clipPath808">
      <path
         d="m 168.9217,1510.423 c -1.6174,0 -2.9218,1.723 -2.9218,3.758 0,2.036 1.3044,2.819 2.9218,2.819 1.6173,0 2.9217,-0.731 2.9217,-2.819 0,-2.087 -1.3044,-3.758 -2.9217,-3.758 z m 1.4087,-0.731 c 2.0349,0 3.7045,-1.67 3.6,-3.81 l -0.0521,-5.324 c 0,-1.253 -0.6261,-2.297 -1.5652,-2.975 0.0522,-0.104 0.0522,-0.209 0.0522,-0.313 l -0.0522,-11.483 c 0,-0.836 -0.7305,-1.514 -1.5652,-1.514 -0.8349,0.052 -1.5132,0.731 -1.5132,1.566 l 0.0523,7.777 -0.8347,0 -0.0522,-7.777 c -0.0523,-0.835 -0.7305,-1.514 -1.5652,-1.514 -0.835,0 -1.5132,0.731 -1.5132,1.566 l 0.0522,11.483 c 0,0.105 0.0522,0.209 0.0522,0.313 -0.9391,0.679 -1.5651,1.775 -1.5651,3.028 l 0.0522,5.324 c 0.0519,2.035 1.6692,3.653 3.7041,3.653 l 2.7131,0 z m 9.235,-0.521 c -1.4089,0 -2.5569,1.461 -2.5569,3.288 0,1.774 1.148,2.453 2.5569,2.453 1.4084,0 2.5564,-0.626 2.5564,-2.453 0,-1.827 -1.148,-3.288 -2.5564,-3.288 z m 1.1998,-0.627 c 1.7738,0 3.1825,-1.461 3.2348,-3.236 l -0.0523,-4.645 c 0,-1.097 -0.5215,-2.036 -1.3565,-2.61 l 0,-0.261 -0.0522,-9.97 c 0,-0.73 -0.6261,-1.305 -1.3563,-1.305 -0.7305,0 -1.3044,0.627 -1.3044,1.357 l 0.052,6.786 -0.7302,0 -0.0523,-6.786 c 0,-0.73 -0.626,-1.305 -1.3565,-1.305 -0.7305,0 -1.3043,0.627 -1.3043,1.358 l 0.0521,9.969 c 0,0.104 0.0523,0.157 0.0523,0.261 -0.835,0.574 -1.3566,1.514 -1.3566,2.61 l 0,4.593 c 0,1.775 1.4088,3.184 3.1826,3.184 l 2.3478,0 z m -22.4347,0.627 c -1.4088,0 -2.5564,1.461 -2.5564,3.288 0,1.774 1.1476,2.453 2.5564,2.453 1.4085,0 2.5565,-0.626 2.5565,-2.453 0,-1.827 -1.148,-3.288 -2.5565,-3.288 z m 1.2521,-0.627 c 1.7219,0 3.1826,-1.461 3.1826,-3.288 l -0.0522,-4.646 c 0,-1.096 -0.5217,-2.036 -1.3566,-2.61 l 0,-0.261 -0.0519,-9.969 c 0,-0.731 -0.6261,-1.305 -1.3566,-1.305 -0.7305,0 -1.3043,0.627 -1.3043,1.357 l 0.0522,6.786 -0.7305,0 -0.0523,-6.786 c 0,-0.73 -0.626,-1.305 -1.3566,-1.305 -0.7305,0 -1.3043,0.627 -1.3043,1.357 l 0.0522,9.97 c 0,0.104 0.0523,0.156 0.0523,0.261 -0.835,0.574 -1.3566,1.513 -1.3566,2.61 l 0.0523,4.645 c 0,1.775 1.4087,3.184 3.1825,3.184 l 2.3478,0 z"
         id="path810"
         inkscape:connector-curvature="0"
         style="clip-rule:evenodd" />
    </clipPath>
    <clipPath
       clipPathUnits="userSpaceOnUse"
       id="clipPath814">
      <path
         d="m 0,0 1280,0 0,5616 L 0,5616 0,0 Z"
         id="path816"
         inkscape:connector-curvature="0" />
    </clipPath>
  </defs>
  <sodipodi:namedview
     id="base"
     pagecolor="#ffffff"
     bordercolor="#666666"
     borderopacity="1.0"
     inkscape:pageopacity="0.0"
     inkscape:pageshadow="2"
     inkscape:zoom="0.85722656"
     inkscape:cx="78.197482"
     inkscape:cy="5.0066453"
     inkscape:document-units="px"
     inkscape:current-layer="layer1"
     showgrid="false"
     fit-margin-top="0"
     fit-margin-left="0"
     fit-margin-right="0"
     fit-margin-bottom="0"
     inkscape:window-width="1311"
     inkscape:window-height="744"
     inkscape:window-x="55"
     inkscape:window-y="24"
     inkscape:window-maximized="1" />
  <metadata
     id="metadata12097">
    <rdf:RDF>
      <cc:Work
         rdf:about="">
        <dc:format>image/svg+xml</dc:format>
        <dc:type
           rdf:resource="http://purl.org/dc/dcmitype/StillImage" />
        <dc:title></dc:title>
      </cc:Work>
    </rdf:RDF>
  </metadata>
  <g
     inkscape:label="Layer 1"
     inkscape:groupmode="layer"
     id="layer1"
     transform="translate(-74.57422,-496.4601)">
    <g
       transform="matrix(1.25,0,0,-1.25,-117.92578,2392.7101)"
       id="g804">
      <g
         id="g806"
         clip-path="url(#clipPath808)">
        <g
           id="g812"
           clip-path="url(#clipPath814)">
          <path
             d="m 149,1479.273 40,0 0,42.7273 -40,0 0,-42.7273 z"
             style="fill:#ffffff;fill-opacity:1;fill-rule:nonzero;stroke:none"
             id="path818"
             inkscape:connector-curvature="0" />
        </g>
      </g>
    </g>
  </g>
</svg>
