<?xml version="1.0" encoding="UTF-8" standalone="no"?>
<!-- Created with Inkscape (http://www.inkscape.org/) -->

<svg
   xmlns:dc="http://purl.org/dc/elements/1.1/"
   xmlns:cc="http://creativecommons.org/ns#"
   xmlns:rdf="http://www.w3.org/1999/02/22-rdf-syntax-ns#"
   xmlns:svg="http://www.w3.org/2000/svg"
   xmlns="http://www.w3.org/2000/svg"
   xmlns:sodipodi="http://sodipodi.sourceforge.net/DTD/sodipodi-0.dtd"
   xmlns:inkscape="http://www.inkscape.org/namespaces/inkscape"
   width="12.347283mm"
   height="11.268923mm"
   viewBox="0 0 43.750217 39.929254"
   id="svg12708"
   version="1.1"
   inkscape:version="0.91 r13725"
   sodipodi:docname="icon--bodies.svg">
  <defs
     id="defs12710">
    <clipPath
       clipPathUnits="userSpaceOnUse"
       id="clipPath904">
      <path
         d="m 738.6145,1505.611 -4.9607,1.523 0,3.694 c 0,0.208 -0.1164,0.401 -0.3054,0.492 l -13.3881,6.625 c 0,0 -0.004,0 -0.0112,0 -0.0261,0.01 -0.1238,0.058 -0.269,0.05 -0.1527,-0.01 -0.2626,-0.083 -0.284,-0.098 l -9.5454,-6.807 c -0.1452,-0.105 -0.2327,-0.273 -0.2327,-0.451 l 0,-4.752 -1.7743,0.21 c 0,0 -0.004,0 -0.0149,0 -0.0214,0 -0.0763,0 -0.1266,0 -0.0661,-0.01 -0.1201,-0.029 -0.1424,-0.037 0,0 -0.004,0 -0.004,0 l -3.2283,-1.429 c -0.2,-0.09 -0.3275,-0.29 -0.3275,-0.504 l 0,-9.211 c 0,-0.203 0.1089,-0.388 0.2876,-0.483 l 3.2321,-1.775 c 0,0 0.0875,-0.047 0.189,-0.062 0.0912,-0.01 0.1564,0 0.1564,0 l 1.7529,0.255 0,-1.015 c 0,-0.2 0.1089,-0.385 0.2839,-0.484 l 9.5492,-5.232 c 0,0 0.1052,-0.062 0.2429,-0.066 0.1099,-0.01 0.2113,0.033 0.2113,0.033 l 0,0 0.004,0 13.3891,5.087 5.3489,2.036 c 0.2104,0.08 0.3528,0.284 0.3528,0.513 l 0,11.356 c 0.004,0.244 -0.1564,0.459 -0.3854,0.528 z m -33.0767,-8.407 c 0,-0.055 -0.0288,-0.11 -0.0763,-0.146 -0.0326,-0.025 -0.0689,-0.037 -0.1089,-0.037 -0.0177,0 -0.0326,0 -0.0512,0.01 l -0.6107,0.167 c -0.08,0.026 -0.134,0.094 -0.134,0.178 l 0,1.709 c 0,0.052 0.0214,0.102 0.0577,0.135 0.04,0.037 0.0912,0.054 0.1415,0.047 l 0.6153,-0.058 c 0.0903,-0.011 0.1629,-0.087 0.1629,-0.181 l 0,-1.822 0.004,0 z m 0,3.64 c 0,-0.099 -0.0763,-0.175 -0.1703,-0.187 l -0.6144,-0.05 -0.0149,0 c -0.0437,0 -0.0875,0.018 -0.1238,0.05 -0.0363,0.034 -0.0577,0.081 -0.0577,0.135 l 0,1.71 c 0,0.083 0.054,0.156 0.134,0.174 l 0.6144,0.164 c 0.0549,0.014 0.1127,0 0.1601,-0.033 0.0438,-0.036 0.0689,-0.088 0.0689,-0.145 l 0,-1.818 0.004,0 z m 1.7892,-4.139 c 0,-0.054 -0.0251,-0.109 -0.0726,-0.145 -0.0326,-0.025 -0.0689,-0.037 -0.1089,-0.037 -0.0186,0 -0.0326,0 -0.0512,0.01 l -0.8397,0.233 c -0.08,0.021 -0.1349,0.094 -0.1349,0.177 l 0,1.99 c 0,0.051 0.0223,0.101 0.0623,0.137 0.0363,0.034 0.0875,0.052 0.1415,0.044 l 0.8397,-0.08 c 0.0949,-0.01 0.1638,-0.086 0.1638,-0.181 l 0,-2.146 z m 0,4.284 c 0,-0.095 -0.0726,-0.175 -0.1666,-0.182 l -0.8406,-0.069 -0.014,0 c -0.0474,0 -0.0912,0.018 -0.1275,0.047 -0.0363,0.036 -0.0586,0.084 -0.0586,0.135 l 0,1.992 c 0,0.084 0.0586,0.157 0.1387,0.179 l 0.8396,0.218 c 0.055,0.015 0.1127,0 0.1601,-0.033 0.0438,-0.032 0.0689,-0.087 0.0689,-0.141 l 0,-2.146 z m 4.6005,-5.56 c 0,-0.054 -0.026,-0.109 -0.0726,-0.146 -0.0335,-0.025 -0.0735,-0.036 -0.1098,-0.036 -0.0177,0 -0.0363,0 -0.0503,0.01 l -1.0836,0.297 c -0.08,0.023 -0.1349,0.095 -0.1349,0.178 l 0,2.775 c 0,0.051 0.0214,0.102 0.0614,0.138 0.0363,0.034 0.0875,0.051 0.1387,0.048 l 1.0836,-0.109 c 0.0949,-0.01 0.1675,-0.088 0.1675,-0.182 l 0,-2.971 z m 0,5.942 c 0,-0.094 -0.0726,-0.175 -0.1675,-0.182 l -1.0836,-0.091 c -0.007,0 -0.0112,0 -0.0149,0 -0.0475,0 -0.0903,0.018 -0.1266,0.047 -0.0372,0.037 -0.0586,0.084 -0.0586,0.134 l 0,2.779 c 0,0.084 0.0586,0.156 0.1377,0.174 l 1.0845,0.288 c 0.054,0.015 0.1127,0 0.1564,-0.033 0.0466,-0.036 0.0726,-0.087 0.0726,-0.146 l 0,-2.97 z m 0,5.941 c 0,-0.072 -0.0437,-0.141 -0.1098,-0.171 l -1.0836,-0.479 c -0.0251,-0.01 -0.0502,-0.015 -0.0726,-0.015 -0.0363,0 -0.0726,0.011 -0.1015,0.029 -0.0512,0.036 -0.0837,0.095 -0.0837,0.156 l 0,2.775 c 0,0.062 0.0325,0.12 0.0875,0.157 l 1.0835,0.672 c 0.054,0.036 0.1276,0.036 0.1853,0.01 0.0586,-0.032 0.0949,-0.094 0.0949,-0.164 l 0,-2.967 z m 2.6978,-12.632 c 0,-0.058 -0.0252,-0.113 -0.0726,-0.146 -0.0289,-0.025 -0.0689,-0.04 -0.1089,-0.04 -0.0187,0 -0.0326,0 -0.0512,0.01 l -1.4513,0.404 c -0.0791,0.022 -0.1341,0.094 -0.1341,0.178 l 0,3.197 c 0,0.05 0.0214,0.098 0.0615,0.134 0.0363,0.036 0.0875,0.051 0.1387,0.048 l 1.454,-0.142 c 0.095,-0.011 0.1639,-0.087 0.1639,-0.182 l 0,-3.458 z m 0,6.912 c 0,-0.094 -0.0726,-0.174 -0.1676,-0.181 l -1.4503,-0.12 c -0.007,0 -0.0112,0 -0.0149,0 -0.0475,0 -0.0912,0.018 -0.1275,0.047 -0.0364,0.036 -0.0578,0.084 -0.0578,0.134 l 0,3.197 c 0,0.084 0.0578,0.156 0.1378,0.178 l 1.4513,0.382 c 0.0549,0.014 0.1126,0 0.1564,-0.033 0.0474,-0.037 0.0726,-0.087 0.0726,-0.146 l 0,-3.458 z m 0,6.913 c 0,-0.073 -0.04,-0.138 -0.1089,-0.168 l -1.4513,-0.643 c -0.0214,-0.011 -0.0466,-0.015 -0.0726,-0.015 -0.0363,0 -0.0689,0.011 -0.1015,0.03 -0.0512,0.033 -0.0838,0.09 -0.0838,0.156 l 0,3.192 c 0,0.067 0.0326,0.124 0.0875,0.157 l 1.4504,0.906 c 0.0586,0.036 0.1312,0.036 0.1852,0 0.0587,-0.032 0.095,-0.095 0.095,-0.16 l 0,-3.458 z m 3.7562,-14.869 c 0,-0.054 -0.0177,-0.105 -0.0578,-0.142 -0.0698,-0.069 -0.1563,-0.069 -0.1889,-0.069 -0.364,0 -1.7678,0.506 -2.0443,0.607 -0.0726,0.026 -0.1201,0.095 -0.1201,0.172 l 0,3.767 c 0,0.05 0.0224,0.098 0.0587,0.134 0.04,0.036 0.0912,0.051 0.1415,0.047 l 2.047,-0.2 c 0.0912,-0.011 0.1639,-0.087 0.1639,-0.181 0,-0.04 0,-3.957 0,-4.135 z m 0,8.265 c 0,-0.094 -0.0727,-0.174 -0.1667,-0.181 l -2.048,-0.168 c -0.004,0 -0.0102,0 -0.0139,0 -0.0475,0 -0.0912,0.015 -0.1238,0.048 -0.0401,0.036 -0.0587,0.083 -0.0587,0.135 l 0,3.767 c 0,0.083 0.055,0.156 0.135,0.178 l 2.0471,0.534 c 0.0549,0.015 0.1126,0 0.1563,-0.029 0.0475,-0.036 0.0727,-0.091 0.0727,-0.145 l 0,-4.139 z m 0,8.269 c 0,-0.072 -0.0438,-0.137 -0.109,-0.166 l -2.0433,-0.906 c -0.026,-0.015 -0.0512,-0.019 -0.0763,-0.019 -0.0326,0 -0.0698,0.012 -0.1024,0.03 -0.0503,0.036 -0.0801,0.094 -0.0801,0.157 l 0,3.763 c 0,0.065 0.0335,0.123 0.0838,0.156 l 2.0471,1.277 c 0.0549,0.032 0.1275,0.036 0.1861,0 0.0578,-0.033 0.0941,-0.094 0.0941,-0.16 l 0,-4.135 z m 8.1351,2.062 c 0,0.062 0.0288,0.117 0.0791,0.153 0.0549,0.033 0.1201,0.04 0.175,0.015 l 2.1858,-0.946 c 0.0651,-0.029 0.1089,-0.094 0.1089,-0.168 l 0,-3.26 c 0,-0.059 -0.0261,-0.114 -0.0726,-0.147 -0.0335,-0.025 -0.0726,-0.04 -0.1099,-0.04 -0.0177,0 -0.0363,0 -0.054,0.012 l -2.182,0.669 c -0.08,0.025 -0.1303,0.094 -0.1303,0.174 l 0,3.538 z m 0,-7.069 c 0,0.055 0.0214,0.106 0.0651,0.142 0.0401,0.033 0.0978,0.047 0.149,0.037 l 2.1857,-0.397 c 0.0866,-0.018 0.149,-0.091 0.149,-0.181 l 0,-3.292 c 0,-0.05 -0.0224,-0.098 -0.0587,-0.134 -0.0325,-0.033 -0.08,-0.047 -0.1238,-0.047 -0.006,0 -0.0102,0 -0.0139,0 l -2.1821,0.156 c -0.0977,0 -0.1703,0.084 -0.1703,0.181 l 0,3.535 z m -5.6878,9.524 c 0,0.062 0.0326,0.12 0.0838,0.156 0.0512,0.033 0.1163,0.037 0.174,0.014 l 3.1027,-1.341 c 0.0652,-0.029 0.109,-0.095 0.109,-0.171 l 0,-3.854 c 0,-0.059 -0.0261,-0.113 -0.0727,-0.149 -0.0335,-0.022 -0.0698,-0.036 -0.1098,-0.036 -0.0177,0 -0.0363,0 -0.054,0.01 l -3.1018,0.957 c -0.0763,0.021 -0.1312,0.094 -0.1312,0.174 l 0,4.244 z m 0,-12.735 0,4.248 c 0,0.054 0.0251,0.105 0.0689,0.138 0.04,0.036 0.0949,0.051 0.1489,0.04 l 3.1027,-0.563 c 0.0866,-0.019 0.149,-0.095 0.149,-0.183 l 0,-3.857 c 0,-0.052 -0.0187,-0.099 -0.0587,-0.132 -0.0326,-0.032 -0.0763,-0.051 -0.1238,-0.051 -0.004,0 -0.007,0 -0.0102,0 l -3.1018,0.179 c -0.0987,0.01 -0.175,0.084 -0.175,0.181 z m 6.0546,-12.694 c 0,-0.077 -0.0475,-0.142 -0.1201,-0.171 l -4.0578,-1.541 c -0.0224,-0.011 -0.0438,-0.015 -0.0661,-0.015 -0.0363,0 -0.0726,0.011 -0.1052,0.032 -0.0475,0.037 -0.0763,0.092 -0.0763,0.153 l 0,10.102 c 0,0.098 0.0726,0.178 0.1712,0.186 l 4.0578,0.272 c 0.0512,0 0.1015,-0.015 0.1387,-0.047 0.0363,-0.037 0.0578,-0.084 0.0578,-0.134 l 0,-8.837 z m 4.8909,1.862 c 0,-0.077 -0.0475,-0.146 -0.1201,-0.171 l -2.7052,-1.033 c -0.0223,-0.01 -0.0437,-0.01 -0.0661,-0.01 -0.0363,0 -0.0726,0.01 -0.1052,0.032 -0.0512,0.033 -0.08,0.09 -0.08,0.149 l 0,8.157 c 0,0.094 0.0763,0.174 0.1713,0.181 l 2.7089,0.182 c 0.0512,0 0.1014,-0.014 0.1378,-0.047 0.0363,-0.033 0.0586,-0.084 0.0586,-0.135 l 0,-7.305 z m 0.782,10.185 c 0,-0.051 -0.0187,-0.102 -0.0587,-0.135 -0.0326,-0.032 -0.08,-0.05 -0.1238,-0.05 l -0.0102,0 -1.6217,0.094 c -0.0949,0 -0.1713,0.084 -0.1713,0.182 l 0,3.029 c 0,0.055 0.0215,0.106 0.0652,0.142 0.04,0.033 0.0987,0.047 0.149,0.037 l 1.6225,-0.296 c 0.0866,-0.013 0.149,-0.09 0.149,-0.177 l 0,-2.826 z m 0,5.647 c 0,-0.057 -0.0261,-0.112 -0.0727,-0.145 -0.0335,-0.025 -0.0726,-0.036 -0.1098,-0.036 -0.0177,0 -0.0363,0 -0.054,0.01 l -1.6216,0.498 c -0.0764,0.022 -0.1276,0.094 -0.1276,0.174 l 0,3.029 c 0,0.063 0.0289,0.117 0.0838,0.153 0.0512,0.033 0.1164,0.04 0.1704,0.015 l 1.6225,-0.702 c 0.0652,-0.029 0.109,-0.095 0.109,-0.167 l 0,-2.826 z m 3.2395,-10.676 c 0,-0.087 -0.0615,-0.163 -0.149,-0.178 l -1.1785,-0.229 c -0.0102,0 -0.0214,0 -0.0326,0 -0.0437,0 -0.0865,0.019 -0.12,0.044 -0.0401,0.036 -0.0652,0.087 -0.0652,0.141 l 0,2.568 c 0,0.095 0.0763,0.175 0.1713,0.181 l 1.1776,0.08 c 0.0512,0 0.1024,-0.013 0.1387,-0.046 0.0363,-0.037 0.0577,-0.084 0.0577,-0.135 l 0,-2.422 z m 0,4.84 c 0,-0.047 -0.0214,-0.098 -0.0577,-0.131 -0.0363,-0.032 -0.0801,-0.051 -0.1276,-0.051 l -0.0111,0 -1.1776,0.07 c -0.095,0 -0.1713,0.083 -0.1713,0.181 l 0,2.568 c 0,0.054 0.0251,0.105 0.0652,0.141 0.04,0.033 0.0986,0.048 0.1498,0.04 l 1.1776,-0.214 c 0.0875,-0.018 0.1527,-0.095 0.1527,-0.182 l 0,-2.422 z m 1.9893,-4.455 c 0,-0.086 -0.0614,-0.163 -0.1489,-0.181 l -0.9421,-0.182 c -0.0112,0 -0.0214,0 -0.0326,0 -0.0437,0 -0.0838,0.014 -0.1163,0.04 -0.0438,0.036 -0.0689,0.088 -0.0689,0.142 l 0,2.291 c 0,0.095 0.0763,0.175 0.1703,0.181 l 0.9421,0.062 c 0.0512,0 0.1015,-0.014 0.1378,-0.047 0.0372,-0.036 0.0586,-0.084 0.0586,-0.134 l 0,-2.172 z m 0,4.343 c 0,-0.051 -0.0214,-0.099 -0.0586,-0.135 -0.0326,-0.029 -0.0764,-0.048 -0.1229,-0.048 -0.004,0 -0.008,0 -0.0112,0 l -0.9421,0.055 c -0.0977,0 -0.1703,0.084 -0.1703,0.182 l 0,2.258 c 0,0.055 0.0214,0.105 0.0614,0.142 0.0401,0.032 0.095,0.051 0.1453,0.04 l 0.9457,-0.142 c 0.0876,-0.011 0.1527,-0.091 0.1527,-0.181 l 0,-2.171 z"
         id="path906"
         inkscape:connector-curvature="0"
         style="clip-rule:evenodd" />
    </clipPath>
    <clipPath
       clipPathUnits="userSpaceOnUse"
       id="clipPath910">
      <path
         d="m 0,0 1280,0 0,5616 L 0,5616 0,0 Z"
         id="path912"
         inkscape:connector-curvature="0" />
    </clipPath>
  </defs>
  <sodipodi:namedview
     id="base"
     pagecolor="#ffffff"
     bordercolor="#666666"
     borderopacity="1.0"
     inkscape:pageopacity="0.0"
     inkscape:pageshadow="2"
     inkscape:zoom="0.85722656"
     inkscape:cx="7.829772"
     inkscape:cy="5.6834806"
     inkscape:document-units="px"
     inkscape:current-layer="layer1"
     showgrid="false"
     fit-margin-top="0"
     fit-margin-left="0"
     fit-margin-right="0"
     fit-margin-bottom="0"
     inkscape:window-width="1311"
     inkscape:window-height="744"
     inkscape:window-x="55"
     inkscape:window-y="24"
     inkscape:window-maximized="1" />
  <metadata
     id="metadata12713">
    <rdf:RDF>
      <cc:Work
         rdf:about="">
        <dc:format>image/svg+xml</dc:format>
        <dc:type
           rdf:resource="http://purl.org/dc/dcmitype/StillImage" />
        <dc:title></dc:title>
      </cc:Work>
    </rdf:RDF>
  </metadata>
  <g
     inkscape:label="Layer 1"
     inkscape:groupmode="layer"
     id="layer1"
     transform="translate(-144.94193,-498.11643)">
    <g
       transform="matrix(1.25,0,0,-1.25,-735.05807,2395.6113)"
       id="g900">
      <g
         id="g902"
         clip-path="url(#clipPath904)">
        <g
           id="g908"
           clip-path="url(#clipPath910)">
          <path
             d="m 699,1481.054 45,0 0,41.9464 -45,0 0,-41.9464 z"
             style="fill:#ffffff;fill-opacity:1;fill-rule:nonzero;stroke:none"
             id="path914"
             inkscape:connector-curvature="0" />
        </g>
      </g>
    </g>
  </g>
</svg>
