<?xml version="1.0" encoding="UTF-8" standalone="no"?>
<!-- Created with Inkscape (http://www.inkscape.org/) -->

<svg
   xmlns:dc="http://purl.org/dc/elements/1.1/"
   xmlns:cc="http://creativecommons.org/ns#"
   xmlns:rdf="http://www.w3.org/1999/02/22-rdf-syntax-ns#"
   xmlns:svg="http://www.w3.org/2000/svg"
   xmlns="http://www.w3.org/2000/svg"
   xmlns:sodipodi="http://sodipodi.sourceforge.net/DTD/sodipodi-0.dtd"
   xmlns:inkscape="http://www.inkscape.org/namespaces/inkscape"
   width="10.583333mm"
   height="11.235267mm"
   viewBox="0 0 37.499999 39.81"
   id="svg10270"
   version="1.1"
   inkscape:version="0.91 r13725"
   sodipodi:docname="icon-organizers.svg">
  <defs
     id="defs10272">
    <clipPath
       clipPathUnits="userSpaceOnUse"
       id="clipPath668">
      <path
         d="m 724.2029,1879.135 c -0.0409,0.76 -0.8172,0.63 -1.5748,0.63 0.5597,-0.149 1.0888,-0.356 1.5748,-0.63 z m -8.099,1.904 c 1.0486,0 1.973,-0.521 2.5451,-1.312 -2.0915,-0.606 -3.6871,-2.143 -4.4885,-4.283 -2.3512,1.872 -0.9975,5.595 1.9434,5.595 z m -6.0759,-5.013 -1.3631,0 c -0.3677,0 -0.6649,0.299 -0.6649,0.665 l 0,2.409 c 0,0.367 0.2972,0.665 0.6649,0.665 l 1.3654,0 c 0.1176,0.385 0.273,0.753 0.4574,1.103 l -0.9659,0.967 c -0.1242,0.124 -0.194,0.293 -0.194,0.47 0,0.177 0.0698,0.345 0.194,0.471 l 1.7039,1.702 c 0.1291,0.13 0.3001,0.194 0.4699,0.194 0.1697,0 0.3398,-0.064 0.4702,-0.195 l 0.9657,-0.966 c 0.3513,0.186 0.7193,0.341 1.1036,0.458 l 0,1.366 c 0,0.367 0.2993,0.665 0.6653,0.665 l 2.4084,0 c 0.3677,0 0.6639,-0.298 0.6639,-0.665 l 0,-1.366 c 0.3854,-0.117 0.7533,-0.272 1.1033,-0.458 l 0.9693,0.967 c 0.1294,0.131 0.2991,0.195 0.4689,0.195 0.1701,0 0.3398,-0.064 0.4702,-0.195 l 1.702,-1.702 c 0.1258,-0.125 0.1956,-0.294 0.1956,-0.47 0,-0.176 -0.0698,-0.346 -0.1956,-0.47 l -0.9663,-0.967 c 0.1658,-0.312 0.2981,-0.645 0.4105,-0.986 -0.8742,0.166 -1.6007,0.166 -2.374,0.07 -0.7241,1.278 -2.0811,2.153 -3.6527,2.153 -2.3209,0 -4.2094,-1.889 -4.2094,-4.211 0,-1.486 0.7776,-2.787 1.9428,-3.537 -0.1615,-0.7 -0.2523,-1.445 -0.2523,-2.235 0,-0.011 10e-4,-0.022 10e-4,-0.033 -0.1501,0.066 -0.3103,0.113 -0.4552,0.189 l -0.965,-0.966 c -0.1261,-0.124 -0.2952,-0.194 -0.4702,-0.194 -0.1773,0 -0.347,0.07 -0.4712,0.194 l -1.7026,1.703 c -0.2596,0.26 -0.2596,0.681 0,0.941 l 0.9659,0.966 c -0.1844,0.35 -0.3398,0.719 -0.4597,1.103 z m 20.8633,-12.887 c -1.3766,1.216 -3.0681,2.055 -4.9117,2.402 0.6505,1.045 1.1476,2.247 1.4631,3.503 0.5275,0.33 1.1446,0.529 1.8104,0.529 1.8938,0 3.4349,-1.54 3.4349,-3.434 0,-1.298 -0.7315,-2.416 -1.7967,-3 z m 7.1077,4.299 10e-4,-2.597 c 0,-0.191 -0.076,-0.374 -0.2104,-0.508 -0.1334,-0.135 -0.3178,-0.21 -0.5076,-0.21 l -1.4735,0 c -0.1272,-0.416 -0.2959,-0.814 -0.4961,-1.192 l 1.0453,-1.043 c 0.1343,-0.135 0.2083,-0.317 0.2083,-0.508 0,-0.19 -0.074,-0.372 -0.2083,-0.507 l -1.8373,-1.836 c -0.141,-0.141 -0.3245,-0.21 -0.5076,-0.21 -0.0803,0 -0.1606,0.019 -0.2376,0.045 -0.4679,1.319 -1.1872,2.496 -2.0916,3.488 1.2432,0.803 2.0716,2.193 2.0716,3.779 0,2.482 -2.0199,4.501 -4.5021,4.501 -0.5452,0 -1.06,-0.112 -1.5433,-0.29 0.0855,0.592 0.1311,1.187 0.1311,1.773 0,0.923 -0.1196,1.789 -0.3386,2.587 0.1249,0.103 0.2783,0.173 0.4523,0.173 l 2.5982,0 c 0.3958,0 0.716,-0.321 0.716,-0.717 l 0,-1.474 c 0.4168,-0.126 0.8139,-0.294 1.1911,-0.494 l 1.0453,1.044 c 0.1396,0.14 0.3231,0.21 0.5066,0.21 0.1832,0 0.3676,-0.07 0.5072,-0.21 l 1.8364,-1.837 c 0.1356,-0.135 0.2106,-0.318 0.2106,-0.508 0,-0.19 -0.075,-0.372 -0.2106,-0.507 l -1.043,-1.043 c 0.1999,-0.378 0.3686,-0.776 0.4961,-1.191 l 1.4735,0 c 0.3949,0 0.717,-0.321 0.717,-0.718 z m -5.6873,-9.215 0.6161,-1.813 c 0.1772,-0.522 0.0918,-1.097 -0.2284,-1.544 -0.3208,-0.448 -0.8379,-0.714 -1.389,-0.714 l -21.1969,0 c -0.5501,0 -1.0672,0.266 -1.388,0.714 -0.3212,0.447 -0.4057,1.022 -0.2294,1.544 l 0.6161,1.812 c 1.1141,3.279 4.058,5.534 7.4587,5.841 1.1371,-1.206 2.547,-1.97 4.1416,-1.97 1.5954,0 3.0044,0.765 4.1425,1.97 3.3987,-0.307 6.3426,-2.562 7.4567,-5.84 z m -17.126,13.9 c 0,8.445 11.0545,8.429 11.0545,0 0,-4.066 -2.475,-8.429 -5.5277,-8.429 -3.0514,0 -5.5268,4.363 -5.5268,8.429 z"
         id="path670"
         inkscape:connector-curvature="0"
         style="clip-rule:evenodd" />
    </clipPath>
    <clipPath
       clipPathUnits="userSpaceOnUse"
       id="clipPath674">
      <path
         d="m 0,0 1280,0 0,5616 L 0,5616 0,0 Z"
         id="path676"
         inkscape:connector-curvature="0" />
    </clipPath>
  </defs>
  <sodipodi:namedview
     id="base"
     pagecolor="#ffffff"
     bordercolor="#666666"
     borderopacity="1.0"
     inkscape:pageopacity="0.0"
     inkscape:pageshadow="2"
     inkscape:zoom="0.85722656"
     inkscape:cx="-9.293978"
     inkscape:cy="58.118695"
     inkscape:document-units="px"
     inkscape:current-layer="layer1"
     showgrid="false"
     fit-margin-top="0"
     fit-margin-left="0"
     fit-margin-right="0"
     fit-margin-bottom="0"
     inkscape:window-width="1311"
     inkscape:window-height="744"
     inkscape:window-x="55"
     inkscape:window-y="24"
     inkscape:window-maximized="1" />
  <metadata
     id="metadata10275">
    <rdf:RDF>
      <cc:Work
         rdf:about="">
        <dc:format>image/svg+xml</dc:format>
        <dc:type
           rdf:resource="http://purl.org/dc/dcmitype/StillImage" />
        <dc:title></dc:title>
      </cc:Work>
    </rdf:RDF>
  </metadata>
  <g
     inkscape:label="Layer 1"
     inkscape:groupmode="layer"
     id="layer1"
     transform="translate(-162.06568,-550.6709)">
    <g
       transform="matrix(1.25,0,0,-1.25,-722.93432,2908.1709)"
       id="g664">
      <g
         id="g666"
         clip-path="url(#clipPath668)">
        <g
           id="g672"
           clip-path="url(#clipPath674)">
          <path
             d="m 703,1849.152 40,0 0,41.8478 -40,0 0,-41.8478 z"
             style="fill:#ffffff;fill-opacity:1;fill-rule:nonzero;stroke:none"
             id="path678"
             inkscape:connector-curvature="0" />
        </g>
      </g>
    </g>
  </g>
</svg>
