<?xml version="1.0" encoding="UTF-8" standalone="no"?>
<!-- Created with Inkscape (http://www.inkscape.org/) -->

<svg
   xmlns:dc="http://purl.org/dc/elements/1.1/"
   xmlns:cc="http://creativecommons.org/ns#"
   xmlns:rdf="http://www.w3.org/1999/02/22-rdf-syntax-ns#"
   xmlns:svg="http://www.w3.org/2000/svg"
   xmlns="http://www.w3.org/2000/svg"
   xmlns:sodipodi="http://sodipodi.sourceforge.net/DTD/sodipodi-0.dtd"
   xmlns:inkscape="http://www.inkscape.org/namespaces/inkscape"
   width="14.111111mm"
   height="7.7611113mm"
   viewBox="0 0 49.999998 27.5"
   id="svg10886"
   version="1.1"
   inkscape:version="0.91 r13725"
   sodipodi:docname="icon-club-teams.svg">
  <defs
     id="defs10888">
    <clipPath
       clipPathUnits="userSpaceOnUse"
       id="clipPath744">
      <path
         d="m 188.3955,1683.842 c 0.3805,-0.325 0.6045,-0.824 0.6045,-1.369 l 0,-2.473 -8.0373,0 0,2.914 c 0,1.067 -0.4476,2.065 -1.2423,2.739 -0.6718,0.569 -1.366,1.091 -2.0262,1.567 0.0114,0.011 0.0114,0.034 0.0114,0.057 l 0,3.482 c -0.4258,0.29 -0.7056,0.79 -0.7056,1.359 l 0,3.621 c 0,1.799 1.4107,3.261 3.1456,3.261 l 0.7613,0 c 1.7349,0 3.1456,-1.462 3.1456,-3.261 l 0,-3.621 c 0,-0.569 -0.2799,-1.069 -0.7051,-1.359 l 0,-3.482 c 0,-0.057 0.0333,-0.115 0.089,-0.139 0.4707,-0.232 2.7985,-1.45 4.9591,-3.296 z m -10.1143,0.597 c 0.4604,-0.378 0.7188,-0.961 0.7188,-1.568 l 0,-2.871 -20,0 0,2.871 c 0,0.607 0.2694,1.179 0.7302,1.568 2.5507,2.128 5.2922,3.546 5.854,3.821 0.0564,0.034 0.1015,0.103 0.1015,0.172 l 0,4.038 c -0.5059,0.332 -0.8317,0.916 -0.8317,1.567 l 0,4.188 c 0,2.082 1.6629,3.775 3.7076,3.775 l 0.8878,0 c 2.0452,0 3.7081,-1.693 3.7081,-3.775 l 0,-4.188 c 0,-0.651 -0.3373,-1.223 -0.8317,-1.567 l 0,-4.038 c 0,-0.081 0.034,-0.138 0.1015,-0.172 0.5618,-0.275 3.3033,-1.693 5.8539,-3.821 z m -17.9856,2.831 c 0,-0.012 0.0114,-0.035 0,-0.046 -0.6597,-0.465 -1.3531,-0.987 -2.0243,-1.568 -0.794,-0.674 -1.2412,-1.672 -1.2412,-2.741 l 0,-2.915 -8.0301,0 0,2.474 c 0,0.522 0.224,1.022 0.6155,1.359 2.158,1.835 4.4844,3.054 4.9539,3.298 0.0564,0.023 0.0896,0.082 0.0896,0.139 l 0,3.484 c -0.4248,0.291 -0.7044,0.79 -0.7044,1.359 l 0,3.624 c 0,1.799 1.4094,3.263 3.1426,3.263 l 0.7608,0 c 1.7331,0 3.142,-1.464 3.142,-3.263 l 0,-3.624 c 0,-0.569 -0.2796,-1.068 -0.7044,-1.359 l 0,-3.484 z"
         id="path746"
         inkscape:connector-curvature="0"
         style="clip-rule:evenodd" />
    </clipPath>
    <clipPath
       clipPathUnits="userSpaceOnUse"
       id="clipPath750">
      <path
         d="m 0,0 1280,0 0,5616 L 0,5616 0,0 Z"
         id="path752"
         inkscape:connector-curvature="0" />
    </clipPath>
  </defs>
  <sodipodi:namedview
     id="base"
     pagecolor="#ffffff"
     bordercolor="#666666"
     borderopacity="1.0"
     inkscape:pageopacity="0.0"
     inkscape:pageshadow="2"
     inkscape:zoom="0.85722656"
     inkscape:cx="-35.70745"
     inkscape:cy="25.132995"
     inkscape:document-units="px"
     inkscape:current-layer="layer1"
     showgrid="false"
     fit-margin-top="0"
     fit-margin-left="0"
     fit-margin-right="0"
     fit-margin-bottom="0"
     inkscape:window-width="1311"
     inkscape:window-height="744"
     inkscape:window-x="55"
     inkscape:window-y="24"
     inkscape:window-maximized="1" />
  <metadata
     id="metadata10891">
    <rdf:RDF>
      <cc:Work
         rdf:about="">
        <dc:format>image/svg+xml</dc:format>
        <dc:type
           rdf:resource="http://purl.org/dc/dcmitype/StillImage" />
        <dc:title></dc:title>
      </cc:Work>
    </rdf:RDF>
  </metadata>
  <g
     inkscape:label="Layer 1"
     inkscape:groupmode="layer"
     id="layer1"
     transform="translate(-188.47915,-529.9952)">
    <g
       transform="matrix(1.25,0,0,-1.25,2.2291524,2657.4952)"
       id="g740">
      <g
         id="g742"
         clip-path="url(#clipPath744)">
        <g
           id="g748"
           clip-path="url(#clipPath750)">
          <path
             d="m 144,1675 50,0 0,32 -50,0 0,-32 z"
             style="fill:#ffffff;fill-opacity:1;fill-rule:nonzero;stroke:none"
             id="path754"
             inkscape:connector-curvature="0" />
        </g>
      </g>
    </g>
  </g>
</svg>
